<svg xmlns="http://www.w3.org/2000/svg" viewBox="0 0 40 40" width="512" height="512">
  <defs>
    <linearGradient id="bgGradEmerald" x1="0%" y1="0%" x2="100%" y2="100%">
      <stop offset="0%" stop-color="#10b981" stop-opacity="0.15"/>
      <stop offset="100%" stop-color="#059669" stop-opacity="0.05"/>
    </linearGradient>
    <linearGradient id="borderGradEmerald" x1="0%" y1="0%" x2="100%" y2="100%">
      <stop offset="0%" stop-color="#34d399"/>
      <stop offset="50%" stop-color="#6ee7b7"/>
      <stop offset="100%" stop-color="#059669"/>
    </linearGradient>
    <linearGradient id="leafGradEmerald" x1="0%" y1="0%" x2="100%" y2="100%">
      <stop offset="0%" stop-color="#10b981"/>
      <stop offset="100%" stop-color="#059669"/>
    </linearGradient>
  </defs>
  <rect x="1.5" y="1.5" width="37" height="37" rx="10" fill="url(#bgGradEmerald)" stroke="url(#borderGradEmerald)" stroke-width="1.8"/>
  <g transform="translate(8, 8)">
    <path d="M11 20A7 7 0 0 1 9.8 6.1C15.5 5 17 4.48 19 2c1 2 2 4.18 2 8 0 5.5-4.78 10-10 10Z" fill="url(#leafGradEmerald)" fill-opacity="0.85" stroke="#34d399" stroke-width="1.5" stroke-linecap="round" stroke-linejoin="round"/>
    <path d="M2 21c0-3 1.85-5.36 5.08-6C9.5 14.52 12 13 13 12" stroke="#34d399" stroke-width="1.5" stroke-linecap="round" stroke-linejoin="round"/>
  </g>
</svg>
